<mxfile host="Electron" agent="Mozilla/5.0 (Windows NT 10.0; Win64; x64) AppleWebKit/537.36 (KHTML, like Gecko) draw.io/26.0.4 Chrome/128.0.6613.186 Electron/32.2.5 Safari/537.36" version="26.0.4">
  <diagram name="Page-1" id="dFaxbiBSKHuPToxD2f61">
    <mxGraphModel dx="780" dy="504" grid="1" gridSize="10" guides="1" tooltips="1" connect="1" arrows="1" fold="1" page="1" pageScale="1" pageWidth="850" pageHeight="1100" math="0" shadow="0">
      <root>
        <mxCell id="0" />
        <mxCell id="1" parent="0" />
        <mxCell id="wt3cL6tScTZiM4ChI6Qj-1" value="&lt;font style=&quot;font-size: 18px;&quot;&gt;Your local Machine&lt;/font&gt;&lt;div&gt;&lt;br&gt;&lt;/div&gt;" style="fontColor=#0066CC;verticalAlign=top;verticalLabelPosition=bottom;labelPosition=center;align=center;html=1;outlineConnect=0;fillColor=#CCCCCC;strokeColor=#6881B3;gradientColor=none;gradientDirection=north;strokeWidth=2;shape=mxgraph.networks.pc;" parent="1" vertex="1">
          <mxGeometry x="130" y="225" width="100" height="75" as="geometry" />
        </mxCell>
        <mxCell id="wt3cL6tScTZiM4ChI6Qj-2" value="&lt;font style=&quot;font-size: 18px;&quot;&gt;&lt;b style=&quot;&quot;&gt;Github Actions Runner&lt;/b&gt;&lt;/font&gt;" style="image;html=1;image=img/lib/clip_art/computers/Server_128x128.png" parent="1" vertex="1">
          <mxGeometry x="580" y="225" width="80" height="80" as="geometry" />
        </mxCell>
        <mxCell id="wt3cL6tScTZiM4ChI6Qj-3" value="&lt;font style=&quot;font-size: 18px;&quot;&gt;&lt;b style=&quot;&quot;&gt;VPS&lt;/b&gt;&lt;/font&gt;" style="image;html=1;image=img/lib/clip_art/computers/Server_128x128.png" parent="1" vertex="1">
          <mxGeometry x="370" y="60" width="80" height="80" as="geometry" />
        </mxCell>
        <mxCell id="wt3cL6tScTZiM4ChI6Qj-5" value="&lt;font style=&quot;font-size: 18px;&quot;&gt;&lt;b style=&quot;&quot;&gt;Github&lt;/b&gt;&lt;/font&gt;" style="image;html=1;image=img/lib/clip_art/computers/Server_128x128.png" parent="1" vertex="1">
          <mxGeometry x="370" y="380" width="80" height="80" as="geometry" />
        </mxCell>
        <mxCell id="1P1AMUzo28egn4HJqmAG-1" value="" style="endArrow=classic;html=1;rounded=0;entryX=-0.042;entryY=0.421;entryDx=0;entryDy=0;entryPerimeter=0;" edge="1" parent="1" source="wt3cL6tScTZiM4ChI6Qj-1" target="wt3cL6tScTZiM4ChI6Qj-5">
          <mxGeometry width="50" height="50" relative="1" as="geometry">
            <mxPoint x="380" y="290" as="sourcePoint" />
            <mxPoint x="430" y="240" as="targetPoint" />
          </mxGeometry>
        </mxCell>
        <mxCell id="1P1AMUzo28egn4HJqmAG-2" value="&lt;font style=&quot;font-size: 14px;&quot;&gt;&lt;b&gt;git push&lt;/b&gt;&lt;/font&gt;" style="edgeLabel;html=1;align=center;verticalAlign=middle;resizable=0;points=[];" vertex="1" connectable="0" parent="1P1AMUzo28egn4HJqmAG-1">
          <mxGeometry x="-0.013" y="-5" relative="1" as="geometry">
            <mxPoint as="offset" />
          </mxGeometry>
        </mxCell>
        <mxCell id="1P1AMUzo28egn4HJqmAG-3" value="" style="endArrow=classic;html=1;rounded=0;exitX=1;exitY=0.5;exitDx=0;exitDy=0;" edge="1" parent="1" source="wt3cL6tScTZiM4ChI6Qj-5" target="wt3cL6tScTZiM4ChI6Qj-2">
          <mxGeometry width="50" height="50" relative="1" as="geometry">
            <mxPoint x="460" y="400" as="sourcePoint" />
            <mxPoint x="551" y="314" as="targetPoint" />
          </mxGeometry>
        </mxCell>
        <mxCell id="1P1AMUzo28egn4HJqmAG-4" value="&lt;font style=&quot;font-size: 14px;&quot;&gt;&lt;b&gt;run workflow file&lt;/b&gt;&lt;/font&gt;" style="edgeLabel;html=1;align=center;verticalAlign=middle;resizable=0;points=[];" vertex="1" connectable="0" parent="1P1AMUzo28egn4HJqmAG-3">
          <mxGeometry x="-0.013" y="-5" relative="1" as="geometry">
            <mxPoint as="offset" />
          </mxGeometry>
        </mxCell>
        <mxCell id="1P1AMUzo28egn4HJqmAG-13" value="" style="endArrow=classic;html=1;rounded=0;" edge="1" parent="1" source="wt3cL6tScTZiM4ChI6Qj-2" target="wt3cL6tScTZiM4ChI6Qj-3">
          <mxGeometry width="50" height="50" relative="1" as="geometry">
            <mxPoint x="450" y="225" as="sourcePoint" />
            <mxPoint x="580" y="106" as="targetPoint" />
          </mxGeometry>
        </mxCell>
        <mxCell id="1P1AMUzo28egn4HJqmAG-14" value="&lt;font style=&quot;font-size: 14px;&quot;&gt;&lt;b&gt;Clone private repo using SSH public \ private key authentication&lt;/b&gt;&lt;/font&gt;" style="edgeLabel;html=1;align=center;verticalAlign=middle;resizable=0;points=[];" vertex="1" connectable="0" parent="1P1AMUzo28egn4HJqmAG-13">
          <mxGeometry x="-0.013" y="-5" relative="1" as="geometry">
            <mxPoint as="offset" />
          </mxGeometry>
        </mxCell>
      </root>
    </mxGraphModel>
  </diagram>
</mxfile>
